<svg width="20" height="12" viewBox="0 0 20 12" fill="none" xmlns="http://www.w3.org/2000/svg">
<g clip-path="url(#clip0_70_3032)">
<path d="M20 0H0V12H20V0Z" fill="#B22234"/>
<path fill-rule="evenodd" clip-rule="evenodd" d="M20 1.74565H0V0.800196H20V1.74565ZM0 2.6911H20V3.63656H0V2.6911ZM20 5.52747H0V4.58201H20V5.52747ZM0 6.47292H20V7.41838H0V6.47292ZM20 9.30929H0V8.36383H20V9.30929ZM0 10.2547H20V11.2002H0V10.2547Z" fill="white"/>
<path d="M9.12 0H0V6.46154H9.12V0Z" fill="#3C3B6E"/>
<path d="M0.759607 0.221418L0.976635 0.889363L0.408447 0.476551H1.11077L0.542578 0.889363L0.759607 0.221418Z" fill="white"/>
<path d="M2.27425 0.221418L2.49127 0.889363L1.92309 0.476551H2.6254L2.05722 0.889363L2.27425 0.221418Z" fill="white"/>
<path d="M3.78888 0.221418L4.00591 0.889363L3.43773 0.476551H4.14004L3.57186 0.889363L3.78888 0.221418Z" fill="white"/>
<path d="M8.3328 0.221418L8.54983 0.889363L7.98164 0.476551H8.68396L8.11577 0.889363L8.3328 0.221418Z" fill="white"/>
<path d="M6.81816 0.221418L7.03519 0.889363L6.467 0.476551H7.16932L6.60113 0.889363L6.81816 0.221418Z" fill="white"/>
<path d="M5.30352 0.221418L5.52055 0.889363L4.95236 0.476551H5.65468L5.0865 0.889363L5.30352 0.221418Z" fill="white"/>
<path d="M0.759607 1.55732L0.976635 2.22526L0.408447 1.81245H1.11077L0.542578 2.22526L0.759607 1.55732Z" fill="white"/>
<path d="M2.27425 1.55732L2.49127 2.22526L1.92309 1.81245H2.6254L2.05722 2.22526L2.27425 1.55732Z" fill="white"/>
<path d="M3.78888 1.55732L4.00591 2.22526L3.43773 1.81245H4.14004L3.57186 2.22526L3.78888 1.55732Z" fill="white"/>
<path d="M8.3328 1.55732L8.54983 2.22526L7.98164 1.81245H8.68396L8.11577 2.22526L8.3328 1.55732Z" fill="white"/>
<path d="M6.81816 1.55732L7.03519 2.22526L6.467 1.81245H7.16932L6.60113 2.22526L6.81816 1.55732Z" fill="white"/>
<path d="M5.30352 1.55732L5.52055 2.22526L4.95236 1.81245H5.65468L5.0865 2.22526L5.30352 1.55732Z" fill="white"/>
<path d="M0.759607 2.89322L0.976635 3.56117L0.408447 3.14835H1.11077L0.542578 3.56117L0.759607 2.89322Z" fill="white"/>
<path d="M2.27425 2.89322L2.49127 3.56117L1.92309 3.14835H2.6254L2.05722 3.56117L2.27425 2.89322Z" fill="white"/>
<path d="M3.78888 2.89322L4.00591 3.56117L3.43773 3.14835H4.14004L3.57186 3.56117L3.78888 2.89322Z" fill="white"/>
<path d="M8.3328 2.89322L8.54983 3.56117L7.98164 3.14835H8.68396L8.11577 3.56117L8.3328 2.89322Z" fill="white"/>
<path d="M6.81816 2.89322L7.03519 3.56117L6.467 3.14835H7.16932L6.60113 3.56117L6.81816 2.89322Z" fill="white"/>
<path d="M5.30352 2.89322L5.52055 3.56117L4.95236 3.14835H5.65468L5.0865 3.56117L5.30352 2.89322Z" fill="white"/>
<path d="M0.759607 4.22912L0.976635 4.89707L0.408447 4.48425H1.11077L0.542578 4.89707L0.759607 4.22912Z" fill="white"/>
<path d="M2.27425 4.22912L2.49127 4.89707L1.92309 4.48425H2.6254L2.05722 4.89707L2.27425 4.22912Z" fill="white"/>
<path d="M3.78888 4.22912L4.00591 4.89707L3.43773 4.48425H4.14004L3.57186 4.89707L3.78888 4.22912Z" fill="white"/>
<path d="M8.3328 4.22912L8.54983 4.89707L7.98164 4.48425H8.68396L8.11577 4.89707L8.3328 4.22912Z" fill="white"/>
<path d="M6.81816 4.22912L7.03519 4.89707L6.467 4.48425H7.16932L6.60113 4.89707L6.81816 4.22912Z" fill="white"/>
<path d="M5.30352 4.22912L5.52055 4.89707L4.95236 4.48425H5.65468L5.0865 4.89707L5.30352 4.22912Z" fill="white"/>
<path d="M0.759607 5.56502L0.976635 6.23297L0.408447 5.82016H1.11077L0.542578 6.23297L0.759607 5.56502Z" fill="white"/>
<path d="M2.27425 5.56502L2.49127 6.23297L1.92309 5.82016H2.6254L2.05722 6.23297L2.27425 5.56502Z" fill="white"/>
<path d="M3.78888 5.56502L4.00591 6.23297L3.43773 5.82016H4.14004L3.57186 6.23297L3.78888 5.56502Z" fill="white"/>
<path d="M8.3328 5.56502L8.54983 6.23297L7.98164 5.82016H8.68396L8.11577 6.23297L8.3328 5.56502Z" fill="white"/>
<path d="M6.81816 5.56502L7.03519 6.23297L6.467 5.82016H7.16932L6.60113 6.23297L6.81816 5.56502Z" fill="white"/>
<path d="M5.30352 5.56502L5.52055 6.23297L4.95236 5.82016H5.65468L5.0865 6.23297L5.30352 5.56502Z" fill="white"/>
<path d="M1.51383 0.889369L1.73085 1.55731L1.16267 1.1445H1.86498L1.2968 1.55731L1.51383 0.889369Z" fill="white"/>
<path d="M3.02846 0.889369L3.24549 1.55731L2.6773 1.1445H3.37962L2.81144 1.55731L3.02846 0.889369Z" fill="white"/>
<path d="M4.5431 0.889369L4.76013 1.55731L4.19194 1.1445H4.89426L4.32608 1.55731L4.5431 0.889369Z" fill="white"/>
<path d="M7.57238 0.889369L7.78941 1.55731L7.22122 1.1445H7.92354L7.35535 1.55731L7.57238 0.889369Z" fill="white"/>
<path d="M6.05774 0.889369L6.27477 1.55731L5.70658 1.1445H6.4089L5.84071 1.55731L6.05774 0.889369Z" fill="white"/>
<path d="M1.51383 2.22527L1.73085 2.89322L1.16267 2.4804H1.86498L1.2968 2.89322L1.51383 2.22527Z" fill="white"/>
<path d="M3.02846 2.22527L3.24549 2.89322L2.6773 2.4804H3.37962L2.81144 2.89322L3.02846 2.22527Z" fill="white"/>
<path d="M4.5431 2.22527L4.76013 2.89322L4.19194 2.4804H4.89426L4.32608 2.89322L4.5431 2.22527Z" fill="white"/>
<path d="M7.57238 2.22527L7.78941 2.89322L7.22122 2.4804H7.92354L7.35535 2.89322L7.57238 2.22527Z" fill="white"/>
<path d="M6.05774 2.22527L6.27477 2.89322L5.70658 2.4804H6.4089L5.84071 2.89322L6.05774 2.22527Z" fill="white"/>
<path d="M1.51383 3.56117L1.73085 4.22912L1.16267 3.8163H1.86498L1.2968 4.22912L1.51383 3.56117Z" fill="white"/>
<path d="M3.02846 3.56117L3.24549 4.22912L2.6773 3.8163H3.37962L2.81144 4.22912L3.02846 3.56117Z" fill="white"/>
<path d="M4.5431 3.56117L4.76013 4.22912L4.19194 3.8163H4.89426L4.32608 4.22912L4.5431 3.56117Z" fill="white"/>
<path d="M7.57238 3.56117L7.78941 4.22912L7.22122 3.8163H7.92354L7.35535 4.22912L7.57238 3.56117Z" fill="white"/>
<path d="M6.05774 3.56117L6.27477 4.22912L5.70658 3.8163H6.4089L5.84071 4.22912L6.05774 3.56117Z" fill="white"/>
<path d="M1.51383 4.89707L1.73085 5.56502L1.16267 5.15221H1.86498L1.2968 5.56502L1.51383 4.89707Z" fill="white"/>
<path d="M3.02846 4.89707L3.24549 5.56502L2.6773 5.15221H3.37962L2.81144 5.56502L3.02846 4.89707Z" fill="white"/>
<path d="M4.5431 4.89707L4.76013 5.56502L4.19194 5.15221H4.89426L4.32608 5.56502L4.5431 4.89707Z" fill="white"/>
<path d="M7.57238 4.89707L7.78941 5.56502L7.22122 5.15221H7.92354L7.35535 5.56502L7.57238 4.89707Z" fill="white"/>
<path d="M6.05774 4.89707L6.27477 5.56502L5.70658 5.15221H6.4089L5.84071 5.56502L6.05774 4.89707Z" fill="white"/>
</g>
<defs>
<clipPath id="clip0_70_3032">
<rect width="20" height="12" fill="white"/>
</clipPath>
</defs>
</svg>
